<svg width="275" height="98" viewBox="0 0 275 98" fill="none" xmlns="http://www.w3.org/2000/svg">
<path d="M39.7188 72.625C38.7396 73.8542 37.5312 74.9271 36.0938 75.8438C34.6562 76.7604 33.1146 77.5208 31.4688 78.125C29.8229 78.7292 28.1354 79.1771 26.4062 79.4688C24.6771 79.7812 23.0312 79.9375 21.4688 79.9375C18.4479 79.9375 15.6667 79.3958 13.125 78.3125C10.5833 77.2292 8.38542 75.7396 6.53125 73.8438C4.69792 71.9271 3.26042 69.6771 2.21875 67.0938C1.17708 64.5104 0.65625 61.7292 0.65625 58.75C0.65625 56.4792 0.916667 54.2604 1.4375 52.0938C1.95833 49.9062 2.69792 47.8542 3.65625 45.9375C4.63542 44 5.82292 42.2292 7.21875 40.625C8.61458 39 10.1979 37.6042 11.9688 36.4375C13.7396 35.2708 15.6771 34.3646 17.7812 33.7188C19.8854 33.0729 22.1354 32.75 24.5312 32.75C25.4271 32.75 26.3854 32.7917 27.4062 32.875C28.4271 32.9375 29.4375 33.0625 30.4375 33.25C31.4583 33.4167 32.4479 33.6562 33.4062 33.9688C34.3646 34.2812 35.2396 34.6667 36.0312 35.125L35.1562 47.0625C33.9896 46.625 32.7812 46.3333 31.5312 46.1875C30.3021 46.0208 29.0938 45.9375 27.9062 45.9375C26.2396 45.9375 24.6771 46.1979 23.2188 46.7188C21.7812 47.2188 20.5208 47.9479 19.4375 48.9062C18.375 49.8646 17.5312 51.0312 16.9062 52.4062C16.2812 53.7812 15.9688 55.3333 15.9688 57.0625C15.9688 58.1458 16.1146 59.1979 16.4062 60.2188C16.6979 61.2188 17.1354 62.1146 17.7188 62.9062C18.3229 63.6771 19.0625 64.3021 19.9375 64.7812C20.8333 65.2604 21.8646 65.5 23.0312 65.5C23.8229 65.5 24.6354 65.3958 25.4688 65.1875C26.3229 64.9792 27.0521 64.625 27.6562 64.125L27.7812 61.6875L20.2812 61.5625L20.6562 52.1875C23.7604 52.0833 26.8646 52 29.9688 51.9375C33.0729 51.8542 36.1979 51.75 39.3438 51.625L39.7188 72.625ZM77 53.75C77 55.5625 76.875 57.375 76.625 59.1875C73.0625 59.4167 69.5208 59.7917 66 60.3125C62.4792 60.8125 58.9583 61.3125 55.4375 61.8125C55.9792 63.3125 56.8229 64.5104 57.9688 65.4062C59.1354 66.3021 60.5208 66.75 62.125 66.75C62.9583 66.75 63.8646 66.5938 64.8438 66.2812C65.8438 65.9688 66.8333 65.5833 67.8125 65.125C68.7917 64.6458 69.7292 64.1354 70.625 63.5938C71.5208 63.0521 72.2917 62.5625 72.9375 62.125L71.4375 76.3125C70.625 76.9375 69.7396 77.4688 68.7812 77.9062C67.8438 78.3438 66.8646 78.6979 65.8438 78.9688C64.8229 79.2396 63.7917 79.4375 62.75 79.5625C61.7083 79.6875 60.6875 79.75 59.6875 79.75C57.625 79.75 55.7396 79.4688 54.0312 78.9062C52.3229 78.3438 50.7708 77.5625 49.375 76.5625C48 75.5417 46.7917 74.3438 45.75 72.9688C44.7083 71.5938 43.8438 70.0938 43.1562 68.4688C42.4688 66.8438 41.9479 65.125 41.5938 63.3125C41.2396 61.5 41.0625 59.6667 41.0625 57.8125C41.0625 55.875 41.2396 53.9375 41.5938 52C41.9479 50.0625 42.4792 48.1979 43.1875 46.4062C43.9167 44.6146 44.8229 42.9583 45.9062 41.4375C47.0104 39.8958 48.2917 38.5521 49.75 37.4062C51.2083 36.2604 52.8542 35.3646 54.6875 34.7188C56.5417 34.0729 58.5833 33.75 60.8125 33.75C62.6667 33.75 64.3542 34.0104 65.875 34.5312C67.4167 35.0312 68.7812 35.7396 69.9688 36.6562C71.1771 37.5521 72.2188 38.625 73.0938 39.875C73.9896 41.125 74.7188 42.5 75.2812 44C75.8646 45.4792 76.2917 47.0521 76.5625 48.7188C76.8542 50.3646 77 52.0417 77 53.75ZM64.5 52.125C64.5 51.5417 64.4375 50.9479 64.3125 50.3438C64.1875 49.7188 63.9792 49.1562 63.6875 48.6562C63.4167 48.1562 63.0521 47.75 62.5938 47.4375C62.1354 47.1042 61.5625 46.9375 60.875 46.9375C60.0417 46.9375 59.3021 47.1667 58.6562 47.625C58.0312 48.0625 57.4896 48.625 57.0312 49.3125C56.5729 49.9792 56.1979 50.7083 55.9062 51.5C55.6146 52.2917 55.3958 53.0208 55.25 53.6875L64.5 52.8125V52.125Z" fill="#25532E"/>
<path d="M162.094 34.3125L161.781 47.5625L152.469 47.9375L150.094 77.5625L136.906 78.25L136.969 48.625L127.656 49.125L128.031 34.375L162.094 34.3125ZM200.438 48.875C200.438 50.5 200.292 51.9792 200 53.3125C199.729 54.625 199.292 55.8333 198.688 56.9375C198.083 58.0417 197.302 59.0625 196.344 60C195.385 60.9375 194.229 61.8333 192.875 62.6875L200.312 75.9375L186.25 78.6875L181.438 65.375L177.562 65.5L177 78.5H163.562C163.667 73.75 163.76 69.0208 163.844 64.3125C163.948 59.6042 164.062 54.875 164.188 50.125C164.229 47.7292 164.271 45.3542 164.312 43C164.354 40.6458 164.438 38.2708 164.562 35.875C166.021 35.3333 167.458 34.8854 168.875 34.5312C170.292 34.1771 171.708 33.9062 173.125 33.7188C174.562 33.5104 176.01 33.375 177.469 33.3125C178.948 33.2292 180.458 33.1875 182 33.1875C184.375 33.1875 186.667 33.5208 188.875 34.1875C191.104 34.8333 193.073 35.8125 194.781 37.125C196.49 38.4375 197.854 40.0729 198.875 42.0312C199.917 43.9896 200.438 46.2708 200.438 48.875ZM186.438 49.875C186.438 49 186.312 48.1979 186.062 47.4688C185.833 46.7396 185.479 46.1146 185 45.5938C184.542 45.0521 183.958 44.6354 183.25 44.3438C182.562 44.0312 181.75 43.875 180.812 43.875C180.396 43.875 179.99 43.9062 179.594 43.9688C179.198 44.0104 178.812 44.0833 178.438 44.1875L177.938 55.8125H178.688C179.583 55.8125 180.49 55.6979 181.406 55.4688C182.344 55.2396 183.177 54.8854 183.906 54.4062C184.656 53.9271 185.26 53.3125 185.719 52.5625C186.198 51.8125 186.438 50.9167 186.438 49.875ZM237.188 53.75C237.188 55.5625 237.062 57.375 236.812 59.1875C233.25 59.4167 229.708 59.7917 226.188 60.3125C222.667 60.8125 219.146 61.3125 215.625 61.8125C216.167 63.3125 217.01 64.5104 218.156 65.4062C219.323 66.3021 220.708 66.75 222.312 66.75C223.146 66.75 224.052 66.5938 225.031 66.2812C226.031 65.9688 227.021 65.5833 228 65.125C228.979 64.6458 229.917 64.1354 230.812 63.5938C231.708 63.0521 232.479 62.5625 233.125 62.125L231.625 76.3125C230.812 76.9375 229.927 77.4688 228.969 77.9062C228.031 78.3438 227.052 78.6979 226.031 78.9688C225.01 79.2396 223.979 79.4375 222.938 79.5625C221.896 79.6875 220.875 79.75 219.875 79.75C217.812 79.75 215.927 79.4688 214.219 78.9062C212.51 78.3438 210.958 77.5625 209.562 76.5625C208.188 75.5417 206.979 74.3438 205.938 72.9688C204.896 71.5938 204.031 70.0938 203.344 68.4688C202.656 66.8438 202.135 65.125 201.781 63.3125C201.427 61.5 201.25 59.6667 201.25 57.8125C201.25 55.875 201.427 53.9375 201.781 52C202.135 50.0625 202.667 48.1979 203.375 46.4062C204.104 44.6146 205.01 42.9583 206.094 41.4375C207.198 39.8958 208.479 38.5521 209.938 37.4062C211.396 36.2604 213.042 35.3646 214.875 34.7188C216.729 34.0729 218.771 33.75 221 33.75C222.854 33.75 224.542 34.0104 226.062 34.5312C227.604 35.0312 228.969 35.7396 230.156 36.6562C231.365 37.5521 232.406 38.625 233.281 39.875C234.177 41.125 234.906 42.5 235.469 44C236.052 45.4792 236.479 47.0521 236.75 48.7188C237.042 50.3646 237.188 52.0417 237.188 53.75ZM224.688 52.125C224.688 51.5417 224.625 50.9479 224.5 50.3438C224.375 49.7188 224.167 49.1562 223.875 48.6562C223.604 48.1562 223.24 47.75 222.781 47.4375C222.323 47.1042 221.75 46.9375 221.062 46.9375C220.229 46.9375 219.49 47.1667 218.844 47.625C218.219 48.0625 217.677 48.625 217.219 49.3125C216.76 49.9792 216.385 50.7083 216.094 51.5C215.802 52.2917 215.583 53.0208 215.438 53.6875L224.688 52.8125V52.125ZM274.125 53.75C274.125 55.5625 274 57.375 273.75 59.1875C270.188 59.4167 266.646 59.7917 263.125 60.3125C259.604 60.8125 256.083 61.3125 252.562 61.8125C253.104 63.3125 253.948 64.5104 255.094 65.4062C256.26 66.3021 257.646 66.75 259.25 66.75C260.083 66.75 260.99 66.5938 261.969 66.2812C262.969 65.9688 263.958 65.5833 264.938 65.125C265.917 64.6458 266.854 64.1354 267.75 63.5938C268.646 63.0521 269.417 62.5625 270.062 62.125L268.562 76.3125C267.75 76.9375 266.865 77.4688 265.906 77.9062C264.969 78.3438 263.99 78.6979 262.969 78.9688C261.948 79.2396 260.917 79.4375 259.875 79.5625C258.833 79.6875 257.812 79.75 256.812 79.75C254.75 79.75 252.865 79.4688 251.156 78.9062C249.448 78.3438 247.896 77.5625 246.5 76.5625C245.125 75.5417 243.917 74.3438 242.875 72.9688C241.833 71.5938 240.969 70.0938 240.281 68.4688C239.594 66.8438 239.073 65.125 238.719 63.3125C238.365 61.5 238.188 59.6667 238.188 57.8125C238.188 55.875 238.365 53.9375 238.719 52C239.073 50.0625 239.604 48.1979 240.312 46.4062C241.042 44.6146 241.948 42.9583 243.031 41.4375C244.135 39.8958 245.417 38.5521 246.875 37.4062C248.333 36.2604 249.979 35.3646 251.812 34.7188C253.667 34.0729 255.708 33.75 257.938 33.75C259.792 33.75 261.479 34.0104 263 34.5312C264.542 35.0312 265.906 35.7396 267.094 36.6562C268.302 37.5521 269.344 38.625 270.219 39.875C271.115 41.125 271.844 42.5 272.406 44C272.99 45.4792 273.417 47.0521 273.688 48.7188C273.979 50.3646 274.125 52.0417 274.125 53.75ZM261.625 52.125C261.625 51.5417 261.562 50.9479 261.438 50.3438C261.312 49.7188 261.104 49.1562 260.812 48.6562C260.542 48.1562 260.177 47.75 259.719 47.4375C259.26 47.1042 258.688 46.9375 258 46.9375C257.167 46.9375 256.427 47.1667 255.781 47.625C255.156 48.0625 254.615 48.625 254.156 49.3125C253.698 49.9792 253.323 50.7083 253.031 51.5C252.74 52.2917 252.521 53.0208 252.375 53.6875L261.625 52.8125V52.125Z" fill="#004859"/>
<path d="M146.137 0.607647C145.787 -0.173499 144.787 -0.204745 144.368 0.532657C142.431 3.90095 138.962 6.00067 134.999 6.00067H129.998C123.373 6.00067 117.997 11.375 117.997 17.9991C117.997 18.4365 118.047 18.8552 118.091 19.2801C122.079 16.4243 127.836 13.9996 135.999 13.9996C136.549 13.9996 136.999 14.4495 136.999 14.9995C136.999 15.5494 136.549 15.9993 135.999 15.9993C120.285 15.9993 113.622 25.6293 112.147 29.2476C111.734 30.2662 112.222 31.4285 113.24 31.8472C114.266 32.2721 115.428 31.7785 115.853 30.7661C115.947 30.5411 117.16 27.7728 120.347 25.1044C122.373 27.8477 126.223 30.4661 131.28 29.9287C141.093 29.2163 148 20.4175 148 9.64394C148 6.50686 147.325 3.25729 146.137 0.607647Z" fill="#25532E"/>
<path d="M101.188 92.7491C84.1605 67.242 81 64.6242 81 55.25C81 42.4093 91.0736 32 103.5 32C115.926 32 126 42.4093 126 55.25C126 64.6242 122.839 67.242 105.812 92.7491C104.695 94.417 102.305 94.4169 101.188 92.7491ZM103.5 64.9375C108.678 64.9375 112.875 60.6003 112.875 55.25C112.875 49.8997 108.678 45.5625 103.5 45.5625C98.3223 45.5625 94.125 49.8997 94.125 55.25C94.125 60.6003 98.3223 64.9375 103.5 64.9375Z" fill="#25532E"/>
</svg>
